<?xml version="1.0" encoding="utf-8"?>
<!-- Generator: Adobe Illustrator 26.3.1, SVG Export Plug-In . SVG Version: 6.00 Build 0)  -->
<svg version="1.1" id="Layer_1" xmlns="http://www.w3.org/2000/svg" xmlns:xlink="http://www.w3.org/1999/xlink" x="0px" y="0px"
	 viewBox="0 0 36 36" style="enable-background:new 0 0 36 36;" xml:space="preserve">
<style type="text/css">
	.st0{fill:#FF0000;}
</style>
<g>
	<g>
		<path class="st0" d="M23.3,18c-0.7,0.4-1.3,0.8-1.7,1.4c-0.1,0.1-0.3,0.4-0.3,0.5c-0.6,1.2-0.9,2.5-0.9,3.8V35
			c0,0.2,0.1,0.3,0.3,0.4c0,0,0,0,0,0c0.2,0.1,0.3,0.1,0.5,0l11.4-6.2c0.7-0.4,1.3-0.8,1.7-1.4c0.1-0.1,0.3-0.4,0.3-0.5
			c0.6-1.2,0.9-2.5,0.9-3.8V12.2c0-0.2-0.1-0.3-0.3-0.4c0,0,0,0,0,0c-0.2-0.1-0.3-0.1-0.5,0L23.3,18z"/>
		<path class="st0" d="M32.5,7.8c0.2-0.1,0.3-0.2,0.3-0.3c0-0.2-0.2-0.3-0.3-0.4l-10-5.5c-0.3-0.2-0.7-0.4-1-0.5
			c-2-0.8-5.2-0.8-7.1,0c-0.4,0.2-0.7,0.3-1.1,0.5L4,6.7C3.7,6.8,3.5,7.1,3.5,7.4l0,0C3.5,7.8,4,8.1,4,8.1l9.4,5.1
			c1.3,0.7,2.7,1.2,4.1,1.4c0.3,0,0.7,0,1,0c1.5-0.2,2.9-0.7,4.2-1.4L32.5,7.8z"/>
		<path class="st0" d="M12.1,17.7L1.3,11.8c-0.1-0.1-0.3-0.1-0.5,0c0,0,0,0,0,0c-0.1,0.1-0.2,0.2-0.2,0.4v11.4c0,1,0.2,2,0.6,3
			c0.1,0.3,0.3,0.6,0.4,0.8C1.6,27.6,1.8,27.8,2,28c0.6,0.6,1.2,1.1,2,1.5l10.9,5.9c0.1,0.1,0.3,0.1,0.5,0c0,0,0,0,0,0
			c0.2-0.1,0.3-0.2,0.3-0.4V23.6c0-1-0.2-2-0.6-3c-0.1-0.3-0.3-0.6-0.4-0.8c-0.1-0.2-0.3-0.4-0.5-0.6C13.5,18.6,12.9,18.1,12.1,17.7
			z"/>
	</g>
</g>
</svg>
