<?xml version="1.0" encoding="utf-8"?>
<!-- Generator: Adobe Illustrator 26.3.1, SVG Export Plug-In . SVG Version: 6.00 Build 0)  -->
<svg version="1.1" id="Layer_1" xmlns="http://www.w3.org/2000/svg" xmlns:xlink="http://www.w3.org/1999/xlink" x="0px" y="0px"
	 viewBox="0 0 101 101" style="enable-background:new 0 0 101 101;" xml:space="preserve">
<g>
	<g>
		<path d="M76.97,18.36c-3.24,0-5.86,2.62-5.86,5.86c0,3.24,2.62,5.86,5.86,5.86c3.24,0,5.86-2.62,5.86-5.86
			C82.84,20.98,80.21,18.36,76.97,18.36z"/>
		<path d="M50.91,25.87c-13.58,0-24.63,11.05-24.63,24.63c0,13.58,11.05,24.63,24.63,24.63c13.58,0,24.63-11.05,24.63-24.63
			C75.54,36.92,64.49,25.87,50.91,25.87z M50.91,66.28c-8.7,0-15.78-7.08-15.78-15.78s7.08-15.77,15.78-15.77
			c8.7,0,15.77,7.08,15.77,15.77S59.61,66.28,50.91,66.28z"/>
		<path d="M70.46,100.5H30.54C13.97,100.5,0.5,87.03,0.5,70.46V30.54C0.5,13.97,13.97,0.5,30.54,0.5h39.92
			c16.56,0,30.04,13.47,30.04,30.04v39.93C100.5,87.03,87.02,100.5,70.46,100.5z M30.54,9.91c-11.38,0-20.63,9.25-20.63,20.63v39.93
			c0,11.38,9.25,20.63,20.63,20.63h39.92c11.38,0,20.63-9.25,20.63-20.63V30.54c0-11.38-9.25-20.63-20.63-20.63H30.54z"/>
	</g>
</g>
</svg>
