<?xml version="1.0" encoding="utf-8"?>
<!-- Generator: Adobe Illustrator 26.3.1, SVG Export Plug-In . SVG Version: 6.00 Build 0)  -->
<svg version="1.1" id="Layer_1" xmlns="http://www.w3.org/2000/svg" xmlns:xlink="http://www.w3.org/1999/xlink" x="0px" y="0px"
	 viewBox="0 0 700 174.17" style="enable-background:new 0 0 700 174.17;" xml:space="preserve">
<style type="text/css">
	.st0{fill:#FF0000;}
</style>
<g>
	<g>
		<path class="st0" d="M105.11,87.21c-2.53,1.46-4.8,3.37-6.54,5.72c-0.28,0.38-1.05,1.7-1.24,2.11
			c-2.25,4.82-3.33,10.11-3.33,15.44v45.25c0,0.72,0.41,1.36,1.05,1.7c0.02,0.01,0.04,0.02,0.06,0.03c0.6,0.32,1.31,0.34,1.9,0
			l43.46-25.09c2.53-1.46,4.8-3.37,6.54-5.72c0.28-0.38,1.05-1.7,1.24-2.11c2.25-4.82,3.33-10.11,3.33-15.44V63.86
			c0-0.72-0.41-1.35-1.04-1.7c-0.02-0.01-0.04-0.02-0.07-0.04c-0.6-0.33-1.32-0.35-1.91-0.01L105.11,87.21z"/>
		<path class="st0" d="M139.98,45.86c0.64-0.38,1.01-0.69,1.01-1.3c0-0.77-0.69-1.17-1.04-1.47L101.71,21
			c-1.28-0.74-2.59-1.42-3.93-2.03c-7.44-3.4-19.81-3.37-27.25,0.02c-1.4,0.64-2.77,1.34-4.11,2.11L31.28,41.39
			c-1.03,0.6-1.67,1.69-1.66,2.88l0,0.02c0.06,1.58,1.95,2.69,1.95,2.69l35.68,20.6c4.85,2.8,10.16,4.72,15.69,5.56
			c1.03,0.16,2.73,0.15,3.76-0.01c5.59-0.87,10.95-2.83,15.85-5.65L139.98,45.86z"/>
		<path class="st0" d="M62.46,86.03L20.97,62.08c-0.58-0.33-1.28-0.31-1.86,0.01c-0.01,0.01-0.02,0.01-0.03,0.02
			c-0.6,0.34-0.99,0.95-0.99,1.63v46.18c0,4.12,0.8,8.2,2.4,12c0.57,1.36,1.13,2.61,1.54,3.32c0.41,0.7,1.06,1.53,1.79,2.34
			c2.13,2.38,4.66,4.37,7.43,5.96l41.49,23.96c0.58,0.33,1.28,0.31,1.86-0.01c0.01-0.01,0.02-0.01,0.03-0.02
			c0.6-0.34,0.99-0.95,0.99-1.63v-46.18c0-4.12-0.8-8.2-2.4-12c-0.57-1.36-1.13-2.61-1.54-3.32c-0.41-0.7-1.06-1.53-1.79-2.34
			C67.76,89.61,65.23,87.63,62.46,86.03z"/>
	</g>
	<g>
		<path d="M262.54,57.79h-8.58l-25.17,42.92v14.44h8.91v22.12h-45.15v-22.12h10.73v-13.54l-23.61-43.83h-9.49V36h41.76v21.13h-6.19
			l10.73,22.45l11.72-22.45h-7.1V36h41.43V57.79z"/>
		<path d="M374.46,100.37c-3.19,12.11-9.4,21.69-18.61,28.76c-9.22,7.07-20.1,10.61-32.64,10.61c-14.36,0-26.7-5.13-37.02-15.39
			c-10.32-10.26-15.48-22.54-15.48-36.85c0-14.42,5.16-26.81,15.48-37.18c10.32-10.37,22.66-15.56,37.02-15.56
			c6.11,0,11.8,1.27,17.09,3.8c4.95,2.37,8.17,5.17,9.66,8.42V36h21.46v39.29h-24.84c-4.9-9.46-12.57-14.2-23.03-14.2
			c-7.54,0-13.82,2.46-18.86,7.39c-5.03,4.93-7.55,10.96-7.55,18.12c0,7.32,2.5,13.65,7.51,18.98c5.01,5.34,11.09,8.01,18.24,8.01
			c5.23,0,9.78-1.09,13.66-3.26c3.88-2.17,7.11-5.49,9.7-9.95H374.46z"/>
		<path d="M476.97,57.79h-9.82v45.06c0,10.4-3.49,19.09-10.48,26.08c-7.21,7.21-16.31,10.81-27.32,10.81
			c-12.11,0-21.51-3.41-28.23-10.23c-6.33-6.44-9.49-14.91-9.49-25.42v-46.3h-9.24V36h41.19v21.79h-6.52v44.49
			c0,3.47,1.28,6.42,3.84,8.87s5.6,3.67,9.12,3.67c3.47,0,6.42-1.33,8.87-4c2.45-2.67,3.67-5.82,3.67-9.45V57.79h-8.01V36h42.42
			V57.79z"/>
		<path d="M568,109.29c0,7.92-3.12,14.57-9.37,19.93c-6.25,5.36-13.55,8.05-21.91,8.05H483.9v-22.12h11.06V57.79H483.9V36h54.97
			c6.99,0,12.88,2.34,17.66,7.02c4.79,4.68,7.18,10.7,7.18,18.08c0,4.9-1.02,9.11-3.05,12.63c-2.26,3.85-5.53,6.52-9.82,8.01
			c5.89,2.48,10.26,6.14,13.12,10.98C566.65,97.21,568,102.74,568,109.29z M540.35,65.71c0-2.92-1.18-5.03-3.55-6.36
			c-1.87-1.04-4.43-1.57-7.68-1.57h-8.58v15.85h8.25c3.25,0,5.83-0.52,7.76-1.57C539.09,70.69,540.35,68.57,540.35,65.71z
			 M542.67,104.42c0-3.47-1.18-6.08-3.55-7.84c-2.04-1.54-4.76-2.31-8.17-2.31h-10.4v20.88h10.15c3.08,0,5.85-1.02,8.29-3.05
			C541.44,110.06,542.67,107.5,542.67,104.42z"/>
		<path d="M681.9,86.01c0,14.64-5.16,27.25-15.48,37.84c-10.32,10.59-22.77,15.89-37.35,15.89c-14.69,0-26.99-4.9-36.89-14.69
			c-10.18-10.07-15.27-22.89-15.27-38.46c0-14.36,5.16-26.65,15.48-36.85c10.32-10.21,22.66-15.31,37.02-15.31
			c14.31,0,26.63,5.04,36.98,15.1C676.73,59.6,681.9,71.76,681.9,86.01z M655.49,87.25c0-7.15-2.51-13.34-7.51-18.57
			c-5.01-5.23-11.09-7.84-18.24-7.84c-7.26,0-13.54,2.59-18.82,7.76c-5.28,5.17-7.92,11.39-7.92,18.65c0,7.15,2.52,13.33,7.55,18.53
			c5.03,5.2,11.1,7.8,18.2,7.8c7.32,0,13.6-2.57,18.86-7.72C652.86,100.72,655.49,94.52,655.49,87.25z"/>
	</g>
</g>
</svg>
