<?xml version="1.0" encoding="utf-8"?>
<!-- Generator: Adobe Illustrator 26.3.1, SVG Export Plug-In . SVG Version: 6.00 Build 0)  -->
<svg version="1.1" id="Layer_1" xmlns="http://www.w3.org/2000/svg" xmlns:xlink="http://www.w3.org/1999/xlink" x="0px" y="0px"
	 viewBox="0 0 101 101" style="enable-background:new 0 0 101 101;" xml:space="preserve">
<style type="text/css">
	.st0{fill-rule:evenodd;clip-rule:evenodd;}
</style>
<g>
	<path d="M0.62,100.5l7.17-26.75c-4.06-7.32-6.2-15.53-6.2-23.86C1.6,22.66,23.75,0.5,50.99,0.5c27.23,0,49.39,22.16,49.39,49.39
		c0,27.23-22.16,49.39-49.39,49.39c-8.18,0-16.25-2.06-23.48-5.98L0.62,100.5z M28.85,83.27l1.69,1.01
		c6.22,3.7,13.29,5.66,20.45,5.66c22.09,0,40.05-17.97,40.05-40.05c0-22.09-17.97-40.05-40.05-40.05
		c-22.09,0-40.05,17.97-40.05,40.05c0,7.29,2.03,14.47,5.86,20.77l1.04,1.71l-4,14.93L28.85,83.27z"/>
	<path class="st0" d="M69.36,56.76c-2.03-1.22-4.68-2.57-7.07-1.59c-1.84,0.75-3.01,3.63-4.2,5.1c-0.61,0.75-1.34,0.87-2.28,0.49
		c-6.9-2.75-12.18-7.35-15.99-13.7c-0.64-0.99-0.53-1.76,0.25-2.68c1.15-1.35,2.59-2.89,2.9-4.72c0.31-1.82-0.54-3.96-1.3-5.58
		c-0.96-2.08-2.04-5.04-4.12-6.21c-1.91-1.08-4.43-0.48-6.13,0.91c-2.94,2.39-4.36,6.14-4.32,9.86c0.01,1.06,0.14,2.11,0.39,3.13
		c0.59,2.45,1.73,4.74,3,6.92c0.96,1.64,2.01,3.23,3.13,4.77c3.69,5.01,8.28,9.37,13.59,12.62c2.66,1.63,5.52,3.05,8.48,4.03
		c3.32,1.1,6.28,2.24,9.87,1.56c3.75-0.71,7.46-3.04,8.95-6.66c0.44-1.07,0.66-2.26,0.41-3.4C74.42,59.28,71.25,57.89,69.36,56.76z"
		/>
</g>
</svg>
